<svg width="28" height="28" viewBox="0 0 28 28" fill="none" xmlns="http://www.w3.org/2000/svg">
<path d="M23.8548 23.7H19.7085V17.2466C19.7085 15.7077 19.677 13.7273 17.5478 13.7273C15.386 13.7273 15.0558 15.4017 15.0558 17.133V23.7H10.9095V10.4293H14.8925V12.2382H14.9462C15.5027 11.1953 16.856 10.0944 18.8778 10.0944C23.079 10.0944 23.856 12.8408 23.856 16.4157L23.8548 23.7ZM6.2265 8.61344C4.89183 8.61344 3.81967 7.54038 3.81967 6.22049C3.81967 4.90177 4.893 3.82987 6.2265 3.82987C7.5565 3.82987 8.6345 4.90177 8.6345 6.22049C8.6345 7.54038 7.55533 8.61344 6.2265 8.61344ZM8.3055 23.7H4.1475V10.4293H8.3055V23.7ZM25.9292 0H2.06617C0.924 0 0 0.896919 0 2.00358V25.8079C0 26.9157 0.924 27.8114 2.06617 27.8114H25.9257C27.0667 27.8114 28 26.9157 28 25.8079V2.00358C28 0.896919 27.0667 0 25.9257 0H25.9292Z" fill="#163C0F"/>
</svg>
