<svg width="10" height="8" viewBox="0 0 10 8" fill="none" xmlns="http://www.w3.org/2000/svg">
<path d="M9.375 0H0.375C0.275544 0 0.180161 0.0395089 0.109835 0.109835C0.0395088 0.180161 0 0.275544 0 0.375V6.75C0 6.94891 0.0790176 7.13968 0.21967 7.28033C0.360322 7.42098 0.551088 7.5 0.75 7.5H9C9.19891 7.5 9.38968 7.42098 9.53033 7.28033C9.67098 7.13968 9.75 6.94891 9.75 6.75V0.375C9.75 0.275544 9.71049 0.180161 9.64017 0.109835C9.56984 0.0395089 9.47446 0 9.375 0ZM9 6.75H0.75V1.22766L4.62141 4.77656C4.69059 4.84007 4.78109 4.87531 4.875 4.87531C4.96891 4.87531 5.05941 4.84007 5.12859 4.77656L9 1.22766V6.75Z" fill="white"/>
</svg>
