<svg width="346" height="61" viewBox="0 0 346 61" fill="none" xmlns="http://www.w3.org/2000/svg">
<g clip-path="url(#clip0_241_4346)">
<path d="M101.582 45.6591C100.081 44.1578 98.2529 43.4071 96.1648 43.4071C94.0759 43.4071 92.3144 44.1578 90.8135 45.6591C89.3125 47.1604 88.5605 48.9864 88.5605 51.076C88.5605 53.1656 89.3125 54.9251 90.8135 56.4264C92.3144 57.9277 94.1109 58.6783 96.1648 58.6783C98.218 58.6783 100.112 57.9277 101.582 56.4264C103.051 54.9251 103.8 53.1975 103.8 51.076C103.8 48.9545 103.051 47.1604 101.582 45.6591Z" fill="#163C0F"/>
<path d="M16.1329 33.3268C17.3178 32.6293 18.5958 32.2806 19.9614 32.2806C21.3271 32.2806 22.0392 32.419 22.8496 32.6986C23.6572 32.9807 24.3215 33.3001 24.8369 33.6621C25.3524 34.0268 25.7084 34.3063 25.905 34.5006L31.8459 25.7803C31.3995 25.389 30.6184 24.9205 29.5025 24.3749C28.3866 23.8292 27.0129 23.3393 25.3816 22.9082C23.7503 22.4769 21.9011 22.2586 19.8366 22.2586C15.9043 22.2586 12.4451 23.0066 9.45865 24.4999C6.47227 25.996 4.15012 28.0988 2.49219 30.8086C0.828964 33.5237 0 36.7366 0 40.4552C0 44.1739 0.828957 47.3602 2.48954 50.0966C4.15012 52.8383 6.47227 54.9545 9.45599 56.4478C12.4424 57.9438 15.9017 58.6918 19.834 58.6918C23.7662 58.6918 23.7874 58.4815 25.4215 58.0609C27.0528 57.643 28.4132 57.1479 29.5025 56.5729C30.5918 55.998 31.357 55.5295 31.8034 55.1675L25.9873 46.5323C25.6234 46.8678 24.9273 47.3096 23.8963 47.8526C22.8628 48.3983 21.553 48.6698 19.9641 48.6698C18.3753 48.6698 17.3205 48.3211 16.1355 47.6237C14.9478 46.9263 13.994 45.9547 13.2687 44.7089C12.5434 43.4658 12.182 42.0471 12.182 40.4552C12.182 38.8634 12.5434 37.4526 13.2687 36.2202C13.994 34.9904 14.9505 34.0268 16.1355 33.3268H16.1329Z" fill="#163C0F"/>
<path d="M48.1916 0H35.4277V57.6856H48.1916V0Z" fill="#163C0F"/>
<path d="M69.3098 33.3267C70.4949 32.6293 71.7728 32.2806 73.1385 32.2806C74.5041 32.2806 75.2162 32.419 76.0268 32.6985C76.8343 32.9807 77.4981 33.3001 78.0139 33.6621C78.5297 34.0268 78.8851 34.3063 79.0819 34.5006L85.0226 25.7803C84.5768 25.389 83.7951 24.9205 82.6793 24.3748C81.5635 23.8291 80.1901 23.3393 78.5585 22.9081C76.9269 22.4769 75.078 22.2586 73.0136 22.2586C69.0813 22.2586 65.622 23.0066 62.6357 24.4999C59.6493 25.9959 57.3271 28.0988 55.6692 30.8086C54.0086 33.521 53.1797 36.7339 53.1797 40.4525C53.1797 44.1712 54.0086 47.3575 55.6692 50.0939C57.3298 52.8356 59.6519 54.9518 62.6357 56.4451C65.622 57.9411 69.0813 58.6891 73.0136 58.6891C76.9459 58.6891 76.9672 58.4788 78.6011 58.0582C80.2349 57.6376 81.5931 57.1452 82.6823 56.5703C83.7716 55.998 84.5365 55.5268 84.9831 55.1648L79.167 46.5296C78.8031 46.8651 78.1066 47.3069 77.0758 47.85C76.0428 48.3956 74.7326 48.6671 73.1438 48.6671C71.5549 48.6671 70.5002 48.3184 69.3151 47.621C68.1275 46.9236 67.1737 45.952 66.4484 44.7062C65.723 43.4631 65.3616 42.0444 65.3616 40.4525C65.3616 38.8608 65.723 37.4499 66.4484 36.2175C67.1737 34.9877 68.1302 34.0241 69.3151 33.3241L69.3098 33.3267Z" fill="#163C0F"/>
<path d="M109.794 34.4755C108.928 33.8743 108.262 33.0726 107.828 32.104C107.395 31.1019 107.195 30.033 107.195 28.8306C107.195 27.6281 107.395 26.5593 107.828 25.5572C108.262 24.5551 108.928 23.7869 109.794 23.1857C110.661 22.5844 111.76 22.3172 113.026 22.3172C114.291 22.3172 114.759 22.4842 115.491 22.7849C116.224 23.0854 116.79 23.5197 117.223 24.0875C117.656 24.6554 117.956 25.29 118.09 25.9914H116.424C116.257 25.29 115.891 24.7221 115.258 24.2879C114.658 23.8871 113.892 23.6533 112.959 23.6533C112.026 23.6533 111.26 23.8871 110.627 24.3213C109.994 24.7556 109.494 25.3568 109.161 26.1584C108.828 26.9267 108.661 27.8285 108.661 28.8306C108.661 29.8327 108.828 30.7345 109.161 31.5027C109.494 32.271 109.961 32.9056 110.627 33.3399C111.26 33.7741 112.06 34.0079 112.959 34.0079C113.858 34.0079 114.658 33.7741 115.258 33.3399C115.858 32.9056 116.257 32.2376 116.391 31.3692H118.057C117.857 32.605 117.324 33.6071 116.424 34.3085C115.524 35.0099 114.392 35.3774 112.993 35.3774C111.593 35.3774 110.627 35.0768 109.76 34.4755H109.794Z" fill="#163C0F"/>
<path d="M124.919 34.4755C124.02 33.8743 123.387 33.1061 122.92 32.104C122.487 31.1019 122.254 30.033 122.254 28.8306C122.254 27.6281 122.487 26.5593 122.92 25.5572C123.354 24.5551 124.02 23.7869 124.919 23.1857C125.819 22.5844 126.885 22.3172 128.151 22.3172C129.417 22.3172 130.517 22.6179 131.416 23.1857C132.315 23.7869 132.982 24.5551 133.415 25.5572C133.848 26.5258 134.081 27.6281 134.081 28.8306C134.081 30.033 133.848 31.1354 133.415 32.104C132.982 33.1061 132.315 33.8743 131.416 34.4755C130.517 35.0768 129.45 35.344 128.151 35.344C126.852 35.344 125.786 35.0433 124.919 34.4755ZM130.55 33.3064C131.216 32.8722 131.716 32.271 132.049 31.4694C132.382 30.7011 132.549 29.7992 132.549 28.7972C132.549 27.7951 132.382 26.9267 132.049 26.125C131.716 25.3568 131.216 24.7556 130.55 24.3213C129.883 23.8871 129.084 23.6533 128.151 23.6533C127.219 23.6533 126.452 23.8871 125.786 24.3213C125.119 24.7556 124.619 25.3568 124.287 26.125C123.953 26.8933 123.787 27.7951 123.787 28.7972C123.787 29.7992 123.953 30.7011 124.287 31.4694C124.619 32.2376 125.119 32.8722 125.786 33.3064C126.452 33.7407 127.219 33.9744 128.151 33.9744C129.084 33.9744 129.883 33.7407 130.55 33.3064Z" fill="#163C0F"/>
<path d="M140.381 35.1768H138.848V22.4507H141.58L144.978 33.2729L148.376 22.4507H151.142V35.1768H149.609V23.3859L145.744 35.1768H144.245L140.381 23.4527V35.1768Z" fill="#163C0F"/>
<path d="M157.97 35.1768H156.438V22.4507H159.17L162.568 33.2729L165.966 22.4507H168.731V35.1768H167.199V23.3859L163.334 35.1768H161.835L157.97 23.4527V35.1768Z" fill="#163C0F"/>
<path d="M182.223 35.1768H174.027V22.4507H182.223V23.8202H175.56V28.0956H181.457V29.4651H175.56V33.7739H182.223V35.1434V35.1768Z" fill="#163C0F"/>
<path d="M195.817 35.1768H194.152L191.919 29.7991H188.455V35.1768H186.922V22.4507H191.653C192.919 22.4507 193.885 22.7513 194.618 23.3859C195.318 23.9872 195.684 24.9224 195.684 26.0915C195.684 27.2606 195.484 27.6614 195.084 28.2292C194.685 28.8305 194.118 29.2313 193.419 29.4985L195.851 35.1434L195.817 35.1768ZM191.419 28.4297C192.286 28.4297 192.952 28.2292 193.419 27.8284C193.885 27.4276 194.118 26.8598 194.118 26.1249C194.118 25.3901 193.885 24.8223 193.419 24.4214C192.952 24.0206 192.286 23.8202 191.419 23.8202H188.421V28.4297H191.419Z" fill="#163C0F"/>
<path d="M202.615 34.4755C201.748 33.8743 201.082 33.0726 200.649 32.104C200.215 31.1019 200.016 30.033 200.016 28.8306C200.016 27.6281 200.215 26.5593 200.649 25.5572C201.082 24.5551 201.748 23.7869 202.615 23.1857C203.481 22.5844 204.58 22.3172 205.846 22.3172C207.112 22.3172 207.579 22.4842 208.312 22.7849C209.045 23.0854 209.611 23.5197 210.045 24.0875C210.477 24.6554 210.777 25.29 210.91 25.9914H209.245C209.078 25.29 208.711 24.7221 208.079 24.2879C207.479 23.8871 206.712 23.6533 205.779 23.6533C204.847 23.6533 204.08 23.8871 203.447 24.3213C202.815 24.7556 202.315 25.3568 201.981 26.1584C201.649 26.9267 201.482 27.8285 201.482 28.8306C201.482 29.8327 201.649 30.7345 201.981 31.5027C202.315 32.271 202.781 32.9056 203.447 33.3399C204.08 33.7741 204.88 34.0079 205.779 34.0079C206.68 34.0079 207.479 33.7741 208.079 33.3399C208.678 32.9056 209.078 32.2376 209.211 31.3692H210.877C210.677 32.605 210.144 33.6071 209.245 34.3085C208.345 35.0099 207.212 35.3774 205.813 35.3774C204.414 35.3774 203.447 35.0768 202.582 34.4755H202.615Z" fill="#163C0F"/>
<path d="M217.073 35.1768H215.541V22.4507H217.073V35.1768Z" fill="#163C0F"/>
<path d="M222.837 35.1768H221.305L225.969 22.4507H227.701L232.366 35.1768H230.833L229.734 32.0704H223.97L222.87 35.1768H222.837ZM226.835 24.0206L224.469 30.701H229.201L226.835 24.0206Z" fill="#163C0F"/>
<path d="M243.76 35.1768H236.531V22.4507H238.063V33.7739H243.76V35.1434V35.1768Z" fill="#163C0F"/>
<path d="M262.45 35.1768H255.221V22.4507H256.754V33.7739H262.45V35.1434V35.1768Z" fill="#163C0F"/>
<path d="M267.114 35.1768H265.582L270.246 22.4507H271.979L276.643 35.1768H275.11L274.011 32.0704H268.247L267.148 35.1768H267.114ZM271.113 24.0206L268.746 30.701H273.478L271.113 24.0206Z" fill="#163C0F"/>
<path d="M285.306 35.1768H283.574L279.809 22.4507H281.408L284.539 32.9723L287.671 22.4507H289.137L292.269 32.9723L295.401 22.4507H297L293.235 35.1768H291.502L288.404 24.9558L285.306 35.1768Z" fill="#163C0F"/>
<path d="M109.794 57.79C108.928 57.1888 108.262 56.3871 107.828 55.4184C107.395 54.4164 107.195 53.3475 107.195 52.145C107.195 50.9425 107.395 49.8737 107.828 48.8716C108.262 47.8696 108.928 47.1013 109.794 46.5001C110.661 45.8989 111.76 45.6317 113.026 45.6317C114.291 45.6317 114.759 45.7987 115.491 46.0993C116.224 46.3999 116.79 46.8341 117.223 47.4019C117.656 47.9698 117.956 48.6044 118.09 49.3059H116.424C116.257 48.6044 115.891 48.0366 115.258 47.6024C114.658 47.2016 113.892 46.9678 112.959 46.9678C112.026 46.9678 111.26 47.2016 110.627 47.6358C109.994 48.07 109.494 48.6713 109.161 49.4729C108.828 50.2411 108.661 51.143 108.661 52.145C108.661 53.1471 108.828 54.0489 109.161 54.8172C109.494 55.5854 109.961 56.2201 110.627 56.6543C111.26 57.0885 112.06 57.3223 112.959 57.3223C113.858 57.3223 114.658 57.0885 115.258 56.6543C115.858 56.2201 116.257 55.5521 116.391 54.6836H118.057C117.857 55.9194 117.324 56.9215 116.424 57.6229C115.524 58.3244 114.392 58.6918 112.993 58.6918C111.593 58.6918 110.627 58.3912 109.76 57.79H109.794Z" fill="#163C0F"/>
<path d="M124.287 58.5248H122.754V45.7986H124.287V51.4436H130.651V45.7986H132.183V58.5248H130.651V52.8131H124.287V58.5248Z" fill="#163C0F"/>
<path d="M137.881 58.5248H136.348L141.012 45.7986H142.744L147.409 58.5248H145.876L144.777 55.4184H139.013L137.913 58.5248H137.881ZM141.878 47.3685L139.513 54.0489H144.244L141.878 47.3685Z" fill="#163C0F"/>
<path d="M153.14 58.5248H151.607V45.7986H154.339L157.737 56.6208L161.136 45.7986H163.901V58.5248H162.369V46.7339L158.504 58.5248H157.004L153.14 46.8007V58.5248Z" fill="#163C0F"/>
<path d="M169.164 58.5248V45.7986H173.928C175.327 45.7986 176.327 46.0993 176.993 46.7339C177.56 47.2683 177.826 48.0032 177.826 48.9719C177.826 49.9405 177.627 50.4081 177.26 50.9426C176.86 51.477 176.36 51.7776 175.694 51.8444C176.594 51.9112 177.26 52.2118 177.76 52.7463C178.259 53.2807 178.493 54.0155 178.493 54.9174C178.493 55.8192 178.193 56.7545 177.56 57.3892C177.127 57.79 176.627 58.0905 176.027 58.2575C175.428 58.4245 174.795 58.5248 174.161 58.5248H169.197H169.164ZM173.928 51.3099C174.661 51.3099 175.261 51.1096 175.661 50.7756C176.06 50.4081 176.294 49.9071 176.294 49.239C176.294 48.571 176.127 48.1702 175.761 47.8362C175.327 47.402 174.594 47.2015 173.596 47.2015H170.697V51.3434H173.928V51.3099ZM173.962 57.1219C174.395 57.1219 174.828 57.0885 175.228 57.0217C175.627 56.9549 175.994 56.7545 176.294 56.4538C176.694 56.0865 176.894 55.5186 176.894 54.8172C176.894 54.1158 176.627 53.3141 176.094 53.0469C175.561 52.7796 174.928 52.6794 174.262 52.6794H170.663V57.1219H173.928H173.962Z" fill="#163C0F"/>
<path d="M191.487 58.5248H183.291V45.7986H191.487V47.1682H184.823V51.4436H190.721V52.8131H184.823V57.1219H191.487V58.4914V58.5248Z" fill="#163C0F"/>
<path d="M205.079 58.7261H203.413L201.182 53.3485H197.716V58.7261H196.184V46H200.915C202.181 46 203.147 46.3007 203.88 46.9353C204.579 47.5366 204.946 48.4718 204.946 49.6408C204.946 50.8099 204.746 51.2108 204.346 51.7786C203.947 52.3798 203.38 52.7807 202.68 53.0478L205.113 58.6928L205.079 58.7261ZM200.682 51.979C201.548 51.979 202.214 51.7786 202.68 51.3778C203.147 50.977 203.38 50.4091 203.38 49.6743C203.38 48.9394 203.147 48.3716 202.68 47.9708C202.214 47.5699 201.548 47.3696 200.682 47.3696H197.683V51.979H200.682Z" fill="#163C0F"/>
<line x1="212.5" y1="47" x2="212.5" y2="58" stroke="#717171" stroke-opacity="0.5"/>
</g>
<path d="M223.569 45.9702C223.543 45.7332 223.436 45.5486 223.248 45.4166C223.062 45.2845 222.82 45.2185 222.521 45.2185C222.311 45.2185 222.131 45.2501 221.981 45.3134C221.831 45.3768 221.716 45.4627 221.636 45.5712C221.557 45.6798 221.516 45.8037 221.514 45.943C221.514 46.0588 221.54 46.1592 221.593 46.2442C221.647 46.3293 221.72 46.4016 221.813 46.4613C221.905 46.5192 222.007 46.5681 222.119 46.6079C222.232 46.6477 222.345 46.6811 222.459 46.7083L222.98 46.8385C223.189 46.8874 223.391 46.9534 223.585 47.0366C223.78 47.1199 223.955 47.2248 224.109 47.3514C224.264 47.4781 224.387 47.6309 224.478 47.81C224.568 47.9892 224.613 48.199 224.613 48.4396C224.613 48.7653 224.53 49.052 224.364 49.2999C224.197 49.5459 223.957 49.7386 223.642 49.8779C223.329 50.0154 222.95 50.0841 222.505 50.0841C222.072 50.0841 221.697 50.0172 221.379 49.8833C221.062 49.7494 220.814 49.554 220.635 49.2972C220.458 49.0403 220.362 48.7273 220.347 48.3582H221.338C221.352 48.5518 221.412 48.7128 221.517 48.8413C221.622 48.9697 221.758 49.0656 221.927 49.1289C222.097 49.1922 222.287 49.2239 222.497 49.2239C222.716 49.2239 222.907 49.1913 223.072 49.1262C223.238 49.0593 223.369 48.967 223.463 48.8494C223.557 48.73 223.605 48.5907 223.607 48.4315C223.605 48.2868 223.562 48.1674 223.479 48.0733C223.396 47.9774 223.279 47.8978 223.129 47.8345C222.981 47.7693 222.807 47.7114 222.608 47.6608L221.976 47.498C221.518 47.3804 221.156 47.2022 220.89 46.9634C220.626 46.7228 220.494 46.4034 220.494 46.0054C220.494 45.678 220.583 45.3912 220.76 45.1452C220.939 44.8992 221.182 44.7083 221.49 44.5726C221.797 44.4351 222.146 44.3664 222.535 44.3664C222.929 44.3664 223.275 44.4351 223.571 44.5726C223.87 44.7083 224.104 44.8973 224.274 45.1398C224.444 45.3804 224.532 45.6572 224.537 45.9702H223.569ZM225.872 50V44.4424H227.956C228.383 44.4424 228.742 44.522 229.031 44.6812C229.322 44.8404 229.542 45.0593 229.69 45.3379C229.841 45.6147 229.916 45.9295 229.916 46.2822C229.916 46.6386 229.841 46.9552 229.69 47.232C229.54 47.5088 229.319 47.7268 229.026 47.886C228.733 48.0434 228.372 48.1221 227.943 48.1221H226.562V47.2944H227.807C228.057 47.2944 228.261 47.251 228.42 47.1642C228.58 47.0773 228.697 46.9579 228.773 46.806C228.851 46.654 228.89 46.4794 228.89 46.2822C228.89 46.085 228.851 45.9114 228.773 45.7612C228.697 45.611 228.579 45.4944 228.418 45.4111C228.259 45.3261 228.053 45.2836 227.802 45.2836H226.879V50H225.872ZM231.152 50V44.4424H234.766V45.2863H232.158V46.7951H234.579V47.6391H232.158V49.156H234.788V50H231.152ZM240.912 46.3175H239.897C239.868 46.1511 239.815 46.0036 239.737 45.8752C239.659 45.7449 239.562 45.6346 239.447 45.5441C239.331 45.4537 239.199 45.3858 239.05 45.3406C238.904 45.2935 238.745 45.27 238.575 45.27C238.273 45.27 238.006 45.346 237.772 45.498C237.539 45.6481 237.356 45.8688 237.224 46.1601C237.092 46.4496 237.026 46.8033 237.026 47.2212C237.026 47.6463 237.092 48.0045 237.224 48.2958C237.358 48.5853 237.541 48.8042 237.772 48.9525C238.006 49.0991 238.272 49.1723 238.573 49.1723C238.739 49.1723 238.895 49.1506 239.039 49.1072C239.186 49.062 239.317 48.9959 239.433 48.9091C239.551 48.8223 239.649 48.7155 239.729 48.5889C239.81 48.4622 239.866 48.3175 239.897 48.1547L240.912 48.1601C240.874 48.4242 240.792 48.6721 240.665 48.9037C240.54 49.1352 240.376 49.3397 240.174 49.517C239.971 49.6924 239.734 49.8299 239.463 49.9294C239.191 50.0271 238.89 50.076 238.559 50.076C238.071 50.076 237.635 49.9629 237.251 49.7368C236.868 49.5106 236.565 49.1841 236.345 48.7571C236.124 48.3302 236.014 47.8182 236.014 47.2212C236.014 46.6224 236.125 46.1104 236.347 45.6852C236.57 45.2583 236.873 44.9317 237.257 44.7056C237.64 44.4794 238.074 44.3664 238.559 44.3664C238.869 44.3664 239.156 44.4098 239.422 44.4966C239.688 44.5835 239.925 44.711 240.133 44.8793C240.341 45.0457 240.512 45.2501 240.646 45.4926C240.782 45.7332 240.87 46.0082 240.912 46.3175ZM243.202 44.4424V50H242.195V44.4424H243.202ZM245.367 50H244.293L246.249 44.4424H247.492L249.452 50H248.377L246.893 45.5821H246.849L245.367 50ZM245.403 47.8209H248.334V48.6296H245.403V47.8209ZM250.545 50V44.4424H251.552V49.156H254V50H250.545ZM256.242 44.4424V50H255.235V44.4424H256.242ZM260.714 45.9702C260.688 45.7332 260.582 45.5486 260.393 45.4166C260.207 45.2845 259.965 45.2185 259.666 45.2185C259.456 45.2185 259.276 45.2501 259.126 45.3134C258.976 45.3768 258.861 45.4627 258.781 45.5712C258.702 45.6798 258.661 45.8037 258.659 45.943C258.659 46.0588 258.686 46.1592 258.738 46.2442C258.792 46.3293 258.866 46.4016 258.958 46.4613C259.05 46.5192 259.152 46.5681 259.265 46.6079C259.377 46.6477 259.49 46.6811 259.604 46.7083L260.125 46.8385C260.335 46.8874 260.536 46.9534 260.73 47.0366C260.925 47.1199 261.1 47.2248 261.254 47.3514C261.409 47.4781 261.532 47.6309 261.623 47.81C261.713 47.9892 261.758 48.199 261.758 48.4396C261.758 48.7653 261.675 49.052 261.509 49.2999C261.342 49.5459 261.102 49.7386 260.787 49.8779C260.474 50.0154 260.095 50.0841 259.65 50.0841C259.217 50.0841 258.842 50.0172 258.524 49.8833C258.207 49.7494 257.959 49.554 257.78 49.2972C257.603 49.0403 257.507 48.7273 257.492 48.3582H258.483C258.497 48.5518 258.557 48.7128 258.662 48.8413C258.767 48.9697 258.904 49.0656 259.072 49.1289C259.242 49.1922 259.432 49.2239 259.642 49.2239C259.861 49.2239 260.052 49.1913 260.217 49.1262C260.383 49.0593 260.514 48.967 260.608 48.8494C260.702 48.73 260.75 48.5907 260.752 48.4315C260.75 48.2868 260.707 48.1674 260.624 48.0733C260.541 47.9774 260.424 47.8978 260.274 47.8345C260.126 47.7693 259.952 47.7114 259.753 47.6608L259.121 47.498C258.663 47.3804 258.301 47.2022 258.035 46.9634C257.771 46.7228 257.639 46.4034 257.639 46.0054C257.639 45.678 257.728 45.3912 257.905 45.1452C258.084 44.8992 258.327 44.7083 258.635 44.5726C258.942 44.4351 259.291 44.3664 259.68 44.3664C260.074 44.3664 260.42 44.4351 260.716 44.5726C261.015 44.7083 261.249 44.8973 261.419 45.1398C261.589 45.3804 261.677 45.6572 261.682 45.9702H260.714ZM263.017 50V44.4424H266.632V45.2863H264.024V46.7951H266.445V47.6391H264.024V49.156H266.654V50H263.017ZM269.904 50H268.021V44.4424H269.942C270.494 44.4424 270.968 44.5536 271.364 44.7761C271.762 44.9968 272.068 45.3144 272.281 45.7286C272.495 46.1429 272.601 46.6386 272.601 47.2157C272.601 47.7947 272.494 48.2922 272.278 48.7083C272.065 49.1244 271.756 49.4437 271.353 49.6662C270.951 49.8887 270.468 50 269.904 50ZM269.027 49.1289H269.855C270.242 49.1289 270.565 49.0583 270.824 48.9172C271.083 48.7743 271.277 48.5617 271.407 48.2795C271.538 47.9955 271.603 47.6409 271.603 47.2157C271.603 46.7906 271.538 46.4378 271.407 46.1574C271.277 45.8752 271.084 45.6644 270.829 45.5251C270.576 45.384 270.261 45.3134 269.885 45.3134H269.027V49.1289ZM277.183 44.4424V50H276.176V44.4424H277.183ZM283.202 44.4424V50H282.306L279.688 46.2144H279.642V50H278.635V44.4424H279.536L282.152 48.2307H282.201V44.4424H283.202ZM220.304 54.2863V53.4424H224.738V54.2863H223.02V59H222.022V54.2863H220.304ZM225.996 59H224.922L226.878 53.4424H228.121L230.081 59H229.006L227.522 54.5821H227.478L225.996 59ZM226.032 56.8209H228.962V57.6296H226.032V56.8209ZM232.015 53.4424L233.239 55.4776H233.283L234.512 53.4424H235.66L233.947 56.2212L235.687 59H234.52L233.283 56.9783H233.239L232.002 59H230.84L232.596 56.2212L230.862 53.4424H232.015ZM240.686 59.0814C240.306 59.0814 239.979 59.0127 239.706 58.8752C239.433 58.7377 239.222 58.5522 239.074 58.3189C238.927 58.0837 238.854 57.8186 238.854 57.5237C238.854 57.3012 238.899 57.104 238.99 56.9322C239.082 56.7603 239.209 56.6011 239.37 56.4546C239.533 56.308 239.721 56.1624 239.934 56.0176L240.919 55.3474C241.064 55.2533 241.173 55.1538 241.248 55.0489C241.324 54.9439 241.362 54.8209 241.362 54.6798C241.362 54.5604 241.311 54.4473 241.21 54.3406C241.11 54.2338 240.973 54.1805 240.797 54.1805C240.68 54.1805 240.575 54.2085 240.485 54.2646C240.396 54.3189 240.327 54.3903 240.276 54.479C240.227 54.5676 240.203 54.6617 240.203 54.7612C240.203 54.8824 240.236 55.0054 240.303 55.1303C240.372 55.2551 240.461 55.3845 240.569 55.5183C240.68 55.6522 240.797 55.7942 240.922 55.9444L243.53 59H242.466L240.301 56.5197C240.139 56.3315 239.984 56.1461 239.834 55.9634C239.685 55.7807 239.563 55.5907 239.467 55.3935C239.373 55.1945 239.326 54.9792 239.326 54.7476C239.326 54.4853 239.387 54.251 239.508 54.0448C239.629 53.8367 239.798 53.673 240.016 53.5536C240.234 53.4342 240.49 53.3745 240.784 53.3745C241.077 53.3745 241.328 53.4324 241.538 53.5482C241.748 53.664 241.91 53.8177 242.024 54.0095C242.138 54.2013 242.195 54.4102 242.195 54.6364C242.195 54.8987 242.13 55.1339 241.999 55.3419C241.869 55.5482 241.688 55.7354 241.457 55.9037L240.333 56.7259C240.149 56.8598 240.016 56.9955 239.937 57.133C239.857 57.2687 239.817 57.3844 239.817 57.4803C239.817 57.6269 239.855 57.7598 239.929 57.8792C240.003 57.9986 240.107 58.0945 240.241 58.1669C240.376 58.2375 240.535 58.2727 240.716 58.2727C240.915 58.2727 241.111 58.2284 241.305 58.1398C241.498 58.0493 241.675 57.9209 241.834 57.7544C241.993 57.588 242.12 57.389 242.214 57.1574C242.308 56.924 242.355 56.6653 242.355 56.3813H243.199C243.199 56.7323 243.16 57.038 243.082 57.2985C243.004 57.5572 242.904 57.7761 242.781 57.9552C242.658 58.1325 242.528 58.2745 242.39 58.3813C242.347 58.412 242.305 58.4428 242.265 58.4735C242.225 58.5043 242.184 58.5351 242.14 58.5658C241.945 58.7431 241.716 58.8734 241.454 58.9566C241.193 59.0398 240.937 59.0814 240.686 59.0814ZM251.511 55.3175H250.496C250.467 55.1511 250.414 55.0036 250.336 54.8752C250.258 54.7449 250.162 54.6346 250.046 54.5441C249.93 54.4537 249.798 54.3858 249.65 54.3406C249.503 54.2935 249.345 54.27 249.175 54.27C248.873 54.27 248.605 54.346 248.371 54.498C248.138 54.6481 247.955 54.8688 247.823 55.1601C247.691 55.4496 247.625 55.8033 247.625 56.2212C247.625 56.6463 247.691 57.0045 247.823 57.2958C247.957 57.5853 248.14 57.8042 248.371 57.9525C248.605 58.0991 248.872 58.1723 249.172 58.1723C249.338 58.1723 249.494 58.1506 249.639 58.1072C249.785 58.062 249.916 57.9959 250.032 57.9091C250.15 57.8223 250.248 57.7155 250.328 57.5889C250.409 57.4622 250.465 57.3175 250.496 57.1547L251.511 57.1601C251.473 57.4242 251.391 57.6721 251.264 57.9037C251.139 58.1352 250.976 58.3397 250.773 58.517C250.57 58.6924 250.333 58.8299 250.062 58.9294C249.791 59.0271 249.489 59.076 249.158 59.076C248.67 59.076 248.234 58.9629 247.85 58.7368C247.467 58.5106 247.165 58.1841 246.944 57.7571C246.723 57.3302 246.613 56.8182 246.613 56.2212C246.613 55.6224 246.724 55.1104 246.947 54.6852C247.169 54.2583 247.472 53.9317 247.856 53.7056C248.239 53.4794 248.674 53.3664 249.158 53.3664C249.468 53.3664 249.755 53.4098 250.021 53.4966C250.287 53.5835 250.524 53.711 250.732 53.8793C250.94 54.0457 251.111 54.2501 251.245 54.4926C251.381 54.7332 251.47 55.0082 251.511 55.3175ZM257.761 56.2212C257.761 56.82 257.648 57.3329 257.424 57.7598C257.202 58.185 256.898 58.5106 256.512 58.7368C256.129 58.9629 255.694 59.076 255.207 59.076C254.72 59.076 254.284 58.9629 253.899 58.7368C253.515 58.5088 253.212 58.1823 252.987 57.7571C252.765 57.3302 252.653 56.8182 252.653 56.2212C252.653 55.6224 252.765 55.1104 252.987 54.6852C253.212 54.2583 253.515 53.9317 253.899 53.7056C254.284 53.4794 254.72 53.3664 255.207 53.3664C255.694 53.3664 256.129 53.4794 256.512 53.7056C256.898 53.9317 257.202 54.2583 257.424 54.6852C257.648 55.1104 257.761 55.6224 257.761 56.2212ZM256.748 56.2212C256.748 55.7996 256.682 55.4442 256.55 55.1547C256.42 54.8634 256.239 54.6436 256.008 54.4953C255.776 54.3451 255.509 54.27 255.207 54.27C254.905 54.27 254.638 54.3451 254.406 54.4953C254.175 54.6436 253.993 54.8634 253.861 55.1547C253.731 55.4442 253.666 55.7996 253.666 56.2212C253.666 56.6427 253.731 56.9991 253.861 57.2904C253.993 57.5798 254.175 57.7996 254.406 57.9498C254.638 58.0981 254.905 58.1723 255.207 58.1723C255.509 58.1723 255.776 58.0981 256.008 57.9498C256.239 57.7996 256.42 57.5798 256.55 57.2904C256.682 56.9991 256.748 56.6427 256.748 56.2212ZM259.074 53.4424H260.306L261.956 57.4695H262.021L263.671 53.4424H264.903V59H263.937V55.1818H263.885L262.349 58.9837H261.627L260.092 55.1737H260.04V59H259.074V53.4424ZM266.361 53.4424H267.593L269.243 57.4695H269.308L270.958 53.4424H272.19V59H271.224V55.1818H271.172L269.636 58.9837H268.914L267.378 55.1737H267.327V59H266.361V53.4424ZM273.647 59V53.4424H277.262V54.2863H274.654V55.7951H277.075V56.6391H274.654V58.156H277.284V59H273.647ZM278.651 59V53.4424H280.735C281.162 53.4424 281.52 53.5165 281.809 53.6649C282.101 53.8132 282.32 54.0213 282.469 54.289C282.619 54.555 282.694 54.8652 282.694 55.2198C282.694 55.5762 282.618 55.8856 282.466 56.1479C282.316 56.4084 282.094 56.6101 281.801 56.7531C281.508 56.8942 281.148 56.9647 280.721 56.9647H279.237V56.1289H280.586C280.835 56.1289 281.04 56.0945 281.199 56.0258C281.358 55.9552 281.476 55.853 281.552 55.7191C281.629 55.5835 281.668 55.417 281.668 55.2198C281.668 55.0226 281.629 54.8544 281.552 54.7151C281.474 54.574 281.355 54.4672 281.196 54.3949C281.037 54.3207 280.832 54.2836 280.58 54.2836H279.657V59H278.651ZM281.522 56.4817L282.898 59H281.774L280.423 56.4817H281.522ZM288.739 55.3175H287.724C287.695 55.1511 287.642 55.0036 287.564 54.8752C287.487 54.7449 287.39 54.6346 287.274 54.5441C287.158 54.4537 287.026 54.3858 286.878 54.3406C286.731 54.2935 286.573 54.27 286.403 54.27C286.101 54.27 285.833 54.346 285.6 54.498C285.366 54.6481 285.183 54.8688 285.051 55.1601C284.919 55.4496 284.853 55.8033 284.853 56.2212C284.853 56.6463 284.919 57.0045 285.051 57.2958C285.185 57.5853 285.368 57.8042 285.6 57.9525C285.833 58.0991 286.1 58.1723 286.4 58.1723C286.567 58.1723 286.722 58.1506 286.867 58.1072C287.013 58.062 287.145 57.9959 287.26 57.9091C287.378 57.8223 287.477 57.7155 287.556 57.5889C287.638 57.4622 287.694 57.3175 287.724 57.1547L288.739 57.1601C288.701 57.4242 288.619 57.6721 288.492 57.9037C288.368 58.1352 288.204 58.3397 288.001 58.517C287.799 58.6924 287.562 58.8299 287.29 58.9294C287.019 59.0271 286.718 59.076 286.387 59.076C285.898 59.076 285.462 58.9629 285.079 58.7368C284.695 58.5106 284.393 58.1841 284.172 57.7571C283.951 57.3302 283.841 56.8182 283.841 56.2212C283.841 55.6224 283.952 55.1104 284.175 54.6852C284.397 54.2583 284.7 53.9317 285.084 53.7056C285.468 53.4794 285.902 53.3664 286.387 53.3664C286.696 53.3664 286.984 53.4098 287.25 53.4966C287.515 53.5835 287.752 53.711 287.961 53.8793C288.169 54.0457 288.34 54.2501 288.473 54.4926C288.609 54.7332 288.698 55.0082 288.739 55.3175ZM291.03 53.4424V59H290.023V53.4424H291.03ZM293.195 59H292.12L294.077 53.4424H295.32L297.279 59H296.204L294.72 54.5821H294.677L293.195 59ZM293.23 56.8209H296.161V57.6296H293.23V56.8209ZM298.372 59V53.4424H299.379V58.156H301.827V59H298.372ZM307.202 59H305.319V53.4424H307.24C307.792 53.4424 308.266 53.5536 308.662 53.7761C309.06 53.9968 309.366 54.3144 309.58 54.7286C309.793 55.1429 309.9 55.6386 309.9 56.2157C309.9 56.7947 309.792 57.2922 309.577 57.7083C309.364 58.1244 309.055 58.4437 308.652 58.6662C308.25 58.8887 307.767 59 307.202 59ZM306.326 58.1289H307.154C307.541 58.1289 307.864 58.0583 308.122 57.9172C308.381 57.7743 308.576 57.5617 308.706 57.2795C308.836 56.9955 308.901 56.6409 308.901 56.2157C308.901 55.7906 308.836 55.4378 308.706 55.1574C308.576 54.8752 308.383 54.6644 308.128 54.5251C307.875 54.384 307.56 54.3134 307.184 54.3134H306.326V58.1289ZM312.225 53.4424V59H311.218V53.4424H312.225ZM316.697 54.9702C316.671 54.7332 316.565 54.5486 316.376 54.4166C316.19 54.2845 315.948 54.2185 315.649 54.2185C315.439 54.2185 315.259 54.2501 315.109 54.3134C314.959 54.3768 314.844 54.4627 314.765 54.5712C314.685 54.6798 314.644 54.8037 314.642 54.943C314.642 55.0588 314.669 55.1592 314.721 55.2442C314.775 55.3293 314.849 55.4016 314.941 55.4613C315.033 55.5192 315.135 55.5681 315.248 55.6079C315.36 55.6477 315.473 55.6811 315.587 55.7083L316.108 55.8385C316.318 55.8874 316.519 55.9534 316.713 56.0366C316.908 56.1199 317.083 56.2248 317.237 56.3514C317.392 56.4781 317.515 56.6309 317.606 56.81C317.696 56.9892 317.741 57.199 317.741 57.4396C317.741 57.7653 317.658 58.052 317.492 58.2999C317.325 58.5459 317.085 58.7386 316.77 58.8779C316.457 59.0154 316.078 59.0841 315.633 59.0841C315.201 59.0841 314.825 59.0172 314.507 58.8833C314.19 58.7494 313.942 58.554 313.763 58.2972C313.586 58.0403 313.49 57.7273 313.476 57.3582H314.466C314.481 57.5518 314.54 57.7128 314.645 57.8413C314.75 57.9697 314.887 58.0656 315.055 58.1289C315.225 58.1922 315.415 58.2239 315.625 58.2239C315.844 58.2239 316.035 58.1913 316.2 58.1262C316.367 58.0593 316.497 57.967 316.591 57.8494C316.685 57.73 316.733 57.5907 316.735 57.4315C316.733 57.2868 316.69 57.1674 316.607 57.0733C316.524 56.9774 316.407 56.8978 316.257 56.8345C316.109 56.7693 315.935 56.7114 315.736 56.6608L315.104 56.498C314.646 56.3804 314.284 56.2022 314.018 55.9634C313.754 55.7228 313.622 55.4034 313.622 55.0054C313.622 54.678 313.711 54.3912 313.888 54.1452C314.067 53.8992 314.31 53.7083 314.618 53.5726C314.926 53.4351 315.274 53.3664 315.663 53.3664C316.057 53.3664 316.403 53.4351 316.699 53.5726C316.998 53.7083 317.232 53.8973 317.402 54.1398C317.572 54.3804 317.66 54.6572 317.666 54.9702H316.697ZM319 59V53.4424H321.085C321.512 53.4424 321.87 53.522 322.159 53.6812C322.45 53.8404 322.67 54.0593 322.819 54.3379C322.969 54.6147 323.044 54.9295 323.044 55.2822C323.044 55.6386 322.969 55.9552 322.819 56.232C322.668 56.5088 322.447 56.7268 322.154 56.886C321.861 57.0434 321.5 57.1221 321.071 57.1221H319.69V56.2944H320.935C321.185 56.2944 321.389 56.251 321.549 56.1642C321.708 56.0773 321.825 55.9579 321.901 55.806C321.979 55.654 322.018 55.4794 322.018 55.2822C322.018 55.085 321.979 54.9114 321.901 54.7612C321.825 54.611 321.707 54.4944 321.546 54.4111C321.387 54.3261 321.181 54.2836 320.93 54.2836H320.007V59H319ZM327.783 53.4424H328.79V57.0733C328.79 57.4713 328.696 57.8214 328.508 58.1235C328.321 58.4256 328.059 58.6617 327.721 58.8318C327.382 59 326.987 59.0841 326.535 59.0841C326.081 59.0841 325.685 59 325.346 58.8318C325.008 58.6617 324.746 58.4256 324.559 58.1235C324.373 57.8214 324.28 57.4713 324.28 57.0733V53.4424H325.287V56.9892C325.287 57.2207 325.337 57.427 325.439 57.6079C325.542 57.7888 325.686 57.9308 325.873 58.0339C326.059 58.1352 326.28 58.1859 326.535 58.1859C326.79 58.1859 327.011 58.1352 327.197 58.0339C327.385 57.9308 327.53 57.7888 327.631 57.6079C327.733 57.427 327.783 57.2207 327.783 56.9892V53.4424ZM330.001 54.2863V53.4424H334.436V54.2863H332.718V59H331.719V54.2863H330.001ZM335.652 59V53.4424H339.267V54.2863H336.659V55.7951H339.079V56.6391H336.659V58.156H339.288V59H335.652ZM343.675 54.9702C343.65 54.7332 343.543 54.5486 343.355 54.4166C343.169 54.2845 342.926 54.2185 342.628 54.2185C342.418 54.2185 342.238 54.2501 342.088 54.3134C341.938 54.3768 341.823 54.4627 341.743 54.5712C341.664 54.6798 341.623 54.8037 341.621 54.943C341.621 55.0588 341.647 55.1592 341.7 55.2442C341.754 55.3293 341.827 55.4016 341.92 55.4613C342.012 55.5192 342.114 55.5681 342.226 55.6079C342.339 55.6477 342.452 55.6811 342.566 55.7083L343.087 55.8385C343.296 55.8874 343.498 55.9534 343.692 56.0366C343.887 56.1199 344.062 56.2248 344.215 56.3514C344.371 56.4781 344.494 56.6309 344.585 56.81C344.675 56.9892 344.72 57.199 344.72 57.4396C344.72 57.7653 344.637 58.052 344.471 58.2999C344.304 58.5459 344.064 58.7386 343.749 58.8779C343.436 59.0154 343.057 59.0841 342.612 59.0841C342.179 59.0841 341.804 59.0172 341.486 58.8833C341.169 58.7494 340.921 58.554 340.742 58.2972C340.565 58.0403 340.469 57.7273 340.454 57.3582H341.445C341.459 57.5518 341.519 57.7128 341.624 57.8413C341.729 57.9697 341.865 58.0656 342.034 58.1289C342.204 58.1922 342.394 58.2239 342.604 58.2239C342.822 58.2239 343.014 58.1913 343.179 58.1262C343.345 58.0593 343.476 57.967 343.57 57.8494C343.664 57.73 343.712 57.5907 343.713 57.4315C343.712 57.2868 343.669 57.1674 343.586 57.0733C343.503 56.9774 343.386 56.8978 343.236 56.8345C343.087 56.7693 342.914 56.7114 342.715 56.6608L342.083 56.498C341.625 56.3804 341.263 56.2022 340.997 55.9634C340.733 55.7228 340.601 55.4034 340.601 55.0054C340.601 54.678 340.689 54.3912 340.867 54.1452C341.046 53.8992 341.289 53.7083 341.597 53.5726C341.904 53.4351 342.253 53.3664 342.642 53.3664C343.036 53.3664 343.381 53.4351 343.678 53.5726C343.977 53.7083 344.211 53.8973 344.381 54.1398C344.551 54.3804 344.639 54.6572 344.644 54.9702H343.675Z" fill="#717171"/>
<defs>
<clipPath id="clip0_241_4346">
<rect width="297" height="59" fill="white"/>
</clipPath>
</defs>
</svg>
